<?xml version="1.0" encoding="UTF-8"?>
<svg xmlns="http://www.w3.org/2000/svg" xmlns:xlink="http://www.w3.org/1999/xlink" width="375pt" height="374.999991pt" viewBox="0 0 375 374.999991" version="1.2">
<defs>
<clipPath id="clip1">
  <path d="M 11.578125 37.5 L 363.328125 37.5 L 363.328125 365.25 L 11.578125 365.25 Z M 11.578125 37.5 "/>
</clipPath>
</defs>
<g id="surface1">
<path style=" stroke:none;fill-rule:nonzero;fill:rgb(100%,100%,100%);fill-opacity:1;" d="M 246.023438 330.132812 L 246.023438 43.351562 L 134.738281 73.164062 L 134.738281 359.398438 L 246.023438 330.132812 "/>
<path style=" stroke:none;fill-rule:nonzero;fill:rgb(100%,100%,100%);fill-opacity:1;" d="M 17.59375 43.351562 L 17.59375 329.585938 L 134.738281 359.398438 L 134.738281 73.164062 L 17.59375 43.351562 "/>
<path style=" stroke:none;fill-rule:nonzero;fill:rgb(100%,100%,100%);fill-opacity:1;" d="M 357.3125 67.199219 L 357.3125 353.429688 L 246.023438 330.132812 L 246.023438 43.351562 L 357.3125 67.199219 "/>
<path style=" stroke:none;fill-rule:nonzero;fill:rgb(36.079407%,88.238525%,90.19928%);fill-opacity:1;" d="M 304.597656 144.722656 L 285.171875 114.957031 C 282.5625 110.957031 281.167969 106.316406 281.167969 101.582031 C 281.167969 92.390625 287 84.136719 295.902344 80.730469 C 301.484375 78.605469 307.707031 78.605469 313.289062 80.730469 C 322.191406 84.136719 328.023438 92.390625 328.023438 101.582031 C 328.023438 106.316406 326.628906 110.957031 324.019531 114.957031 L 304.597656 144.722656 "/>
<path style=" stroke:none;fill-rule:nonzero;fill:rgb(100%,100%,100%);fill-opacity:1;" d="M 304.597656 91.15625 C 298.144531 91.15625 292.882812 96.4375 292.882812 102.910156 C 292.882812 109.402344 298.144531 114.660156 304.597656 114.660156 C 311.046875 114.660156 316.308594 109.402344 316.308594 102.910156 C 316.308594 96.4375 311.046875 91.15625 304.597656 91.15625 "/>
<g clip-path="url(#clip1)" clip-rule="nonzero">
<path style=" stroke:none;fill-rule:nonzero;fill:rgb(0%,76.078796%,79.60968%);fill-opacity:1;" d="M 23.453125 50.875 L 128.878906 77.714844 L 128.878906 187.40625 L 128.492188 187.269531 C 125.449219 186.242188 122.109375 187.910156 121.101562 190.972656 C 120.070312 194.035156 121.742188 197.351562 124.808594 198.378906 L 128.878906 199.730469 L 128.878906 351.851562 L 23.453125 325.035156 Z M 351.453125 346.230469 L 251.882812 325.378906 L 251.882812 228.078125 L 259.15625 231.4375 C 259.957031 231.804688 260.804688 231.988281 261.605469 231.988281 C 263.824219 231.988281 265.953125 230.730469 266.9375 228.582031 C 268.285156 225.65625 267.003906 222.15625 264.078125 220.808594 L 251.882812 215.183594 L 251.882812 50.601562 L 351.453125 71.929688 Z M 240.167969 210.085938 C 240.074219 210.132812 239.984375 210.132812 239.914062 210.199219 C 237.261719 212.050781 236.621094 215.710938 238.472656 218.363281 L 240.167969 220.785156 L 240.167969 325.628906 L 140.59375 351.808594 L 140.59375 199.132812 L 148.992188 194.949219 C 151.898438 193.488281 153.0625 189.96875 151.621094 187.085938 C 150.179688 184.207031 146.65625 183.015625 143.753906 184.457031 L 140.59375 186.058594 L 140.59375 77.644531 L 240.167969 50.988281 Z M 16.152344 335.253906 L 133.296875 365.066406 C 133.777344 365.179688 134.257812 365.25 134.738281 365.25 C 135.242188 365.25 135.746094 365.179688 136.226562 365.066406 L 246.183594 336.148438 L 356.097656 359.167969 C 357.835938 359.535156 359.644531 359.101562 360.996094 357.980469 C 362.367188 356.859375 363.167969 355.191406 363.167969 353.429688 L 363.167969 67.199219 C 363.167969 64.453125 361.246094 62.054688 358.546875 61.480469 L 247.261719 37.636719 C 246.894531 37.546875 246.527344 37.546875 246.140625 37.523438 C 246.117188 37.523438 246.070312 37.5 246.023438 37.5 C 246 37.5 246 37.5 245.980469 37.5 C 245.476562 37.523438 244.996094 37.570312 244.515625 37.707031 L 134.691406 67.105469 L 19.035156 37.683594 C 17.296875 37.25 15.421875 37.613281 14 38.734375 C 12.582031 39.832031 11.738281 41.546875 11.738281 43.351562 L 11.738281 329.585938 C 11.738281 332.261719 13.542969 334.59375 16.152344 335.253906 "/>
</g>
<path style=" stroke:none;fill-rule:nonzero;fill:rgb(0%,76.078796%,79.60968%);fill-opacity:1;" d="M 56.101562 293.074219 L 48.34375 301.855469 C 46.214844 304.277344 46.445312 307.980469 48.847656 310.105469 C 49.96875 311.089844 51.363281 311.59375 52.738281 311.59375 C 54.363281 311.59375 55.964844 310.90625 57.128906 309.605469 L 64.886719 300.824219 C 67.035156 298.402344 66.808594 294.71875 64.359375 292.570312 C 61.933594 290.421875 58.25 290.652344 56.101562 293.074219 "/>
<path style=" stroke:none;fill-rule:nonzero;fill:rgb(0%,76.078796%,79.60968%);fill-opacity:1;" d="M 82.136719 263.628906 L 67.265625 280.453125 C 65.113281 282.878906 65.34375 286.582031 67.769531 288.707031 C 68.890625 289.691406 70.261719 290.171875 71.660156 290.171875 C 73.28125 290.171875 74.882812 289.507812 76.050781 288.203125 L 90.921875 271.378906 C 93.074219 268.957031 92.84375 265.25 90.417969 263.101562 C 87.996094 260.976562 84.289062 261.203125 82.136719 263.628906 "/>
<path style=" stroke:none;fill-rule:nonzero;fill:rgb(0%,76.078796%,79.60968%);fill-opacity:1;" d="M 104.902344 233.015625 C 103.347656 230.203125 99.777344 229.175781 96.941406 230.730469 C 94.105469 232.308594 93.097656 235.875 94.652344 238.6875 L 98.3125 245.316406 L 93.300781 250.984375 C 91.152344 253.433594 91.378906 257.113281 93.828125 259.261719 C 94.925781 260.246094 96.324219 260.726562 97.695312 260.726562 C 99.320312 260.726562 100.921875 260.0625 102.089844 258.734375 L 109.84375 249.980469 C 111.492188 248.105469 111.765625 245.429688 110.578125 243.257812 L 104.902344 233.015625 "/>
<path style=" stroke:none;fill-rule:nonzero;fill:rgb(0%,76.078796%,79.60968%);fill-opacity:1;" d="M 85.753906 222.636719 C 86.828125 224.578125 88.816406 225.65625 90.898438 225.65625 C 91.839844 225.65625 92.820312 225.425781 93.714844 224.921875 C 96.550781 223.367188 97.582031 219.800781 96.003906 216.96875 L 84.152344 195.566406 C 82.59375 192.757812 79.027344 191.726562 76.1875 193.28125 C 73.351562 194.859375 72.320312 198.402344 73.902344 201.238281 L 85.753906 222.636719 "/>
<path style=" stroke:none;fill-rule:nonzero;fill:rgb(0%,76.078796%,79.60968%);fill-opacity:1;" d="M 81.128906 177.667969 C 82.136719 174.605469 80.488281 171.289062 77.425781 170.261719 L 66.304688 166.554688 C 64.015625 165.777344 61.5 166.511719 59.945312 168.363281 C 58.410156 170.214844 58.160156 172.84375 59.328125 174.945312 L 65 185.1875 C 66.074219 187.109375 68.066406 188.207031 70.125 188.207031 C 71.085938 188.207031 72.070312 187.976562 72.960938 187.476562 C 75.113281 186.285156 76.210938 183.953125 75.9375 181.644531 C 78.246094 181.507812 80.351562 180 81.128906 177.667969 "/>
<path style=" stroke:none;fill-rule:nonzero;fill:rgb(0%,76.078796%,79.60968%);fill-opacity:1;" d="M 160.84375 188.34375 C 161.710938 188.34375 162.605469 188.136719 163.453125 187.726562 L 182.714844 178.101562 C 185.597656 176.660156 186.789062 173.140625 185.347656 170.238281 C 183.882812 167.355469 180.382812 166.167969 177.476562 167.628906 L 158.210938 177.253906 C 155.328125 178.695312 154.140625 182.214844 155.582031 185.097656 C 156.609375 187.15625 158.691406 188.34375 160.84375 188.34375 "/>
<path style=" stroke:none;fill-rule:nonzero;fill:rgb(0%,76.078796%,79.60968%);fill-opacity:1;" d="M 113.183594 182.171875 L 92.753906 175.359375 C 89.664062 174.328125 86.347656 176 85.339844 179.0625 C 84.3125 182.125 85.957031 185.441406 89.046875 186.46875 L 109.480469 193.28125 C 110.097656 193.488281 110.714844 193.578125 111.332031 193.578125 C 113.78125 193.578125 116.066406 192.023438 116.890625 189.578125 C 117.898438 186.515625 116.25 183.199219 113.183594 182.171875 "/>
<path style=" stroke:none;fill-rule:nonzero;fill:rgb(0%,76.078796%,79.60968%);fill-opacity:1;" d="M 197.152344 170.878906 L 203.125 167.90625 L 206.945312 173.347656 C 208.089844 174.96875 209.898438 175.859375 211.75 175.859375 C 212.894531 175.859375 214.085938 175.519531 215.089844 174.785156 C 217.746094 172.933594 218.386719 169.300781 216.53125 166.648438 L 209.828125 157.046875 C 208.160156 154.667969 205 153.867188 202.394531 155.171875 L 191.9375 160.40625 C 189.03125 161.847656 187.863281 165.367188 189.304688 168.269531 C 190.746094 171.152344 194.269531 172.316406 197.152344 170.878906 "/>
<path style=" stroke:none;fill-rule:nonzero;fill:rgb(0%,76.078796%,79.60968%);fill-opacity:1;" d="M 274.144531 238.34375 L 294.09375 247.554688 C 294.894531 247.921875 295.71875 248.082031 296.566406 248.082031 C 298.761719 248.082031 300.890625 246.824219 301.875 244.699219 C 303.222656 241.75 301.941406 238.273438 299.011719 236.925781 L 279.039062 227.710938 C 276.109375 226.363281 272.632812 227.644531 271.285156 230.570312 C 269.933594 233.519531 271.191406 236.992188 274.144531 238.34375 "/>
<path style=" stroke:none;fill-rule:nonzero;fill:rgb(0%,76.078796%,79.60968%);fill-opacity:1;" d="M 216.394531 186.859375 L 229 204.851562 C 230.144531 206.472656 231.976562 207.34375 233.804688 207.34375 C 234.972656 207.34375 236.140625 207 237.167969 206.289062 C 239.824219 204.4375 240.464844 200.78125 238.609375 198.152344 L 226.003906 180.136719 C 224.152344 177.484375 220.492188 176.84375 217.835938 178.695312 C 215.183594 180.546875 214.542969 184.207031 216.394531 186.859375 "/>
<path style=" stroke:none;fill-rule:nonzero;fill:rgb(0%,76.078796%,79.60968%);fill-opacity:1;" d="M 325.621094 241.429688 C 324.980469 238.25 321.894531 236.195312 318.710938 236.835938 C 315.554688 237.472656 313.496094 240.558594 314.136719 243.714844 L 314.160156 243.921875 L 313.976562 243.828125 C 311.046875 242.480469 307.570312 243.761719 306.21875 246.6875 C 304.847656 249.636719 306.152344 253.113281 309.082031 254.460938 L 319.71875 259.351562 C 320.496094 259.71875 321.34375 259.902344 322.167969 259.902344 C 323.449219 259.902344 324.753906 259.46875 325.78125 258.644531 C 327.523438 257.273438 328.34375 255.054688 327.910156 252.90625 L 325.621094 241.429688 "/>
<path style=" stroke:none;fill-rule:nonzero;fill:rgb(0%,76.078796%,79.60968%);fill-opacity:1;" d="M 315.96875 228.96875 C 316.355469 228.96875 316.746094 228.945312 317.132812 228.855469 C 320.292969 228.214844 322.351562 225.128906 321.710938 221.972656 L 316.515625 196.046875 C 315.898438 192.871094 312.832031 190.8125 309.628906 191.453125 C 306.472656 192.070312 304.414062 195.15625 305.054688 198.335938 L 310.222656 224.261719 C 310.796875 227.050781 313.246094 228.96875 315.96875 228.96875 "/>
<path style=" stroke:none;fill-rule:nonzero;fill:rgb(0%,76.078796%,79.60968%);fill-opacity:1;" d="M 308.050781 183.472656 C 311.207031 182.832031 313.265625 179.746094 312.625 176.59375 L 310.339844 165.117188 C 309.699219 161.9375 306.609375 159.878906 303.453125 160.519531 C 300.273438 161.160156 298.210938 164.246094 298.851562 167.402344 L 301.140625 178.878906 C 301.714844 181.667969 304.136719 183.589844 306.882812 183.589844 C 307.273438 183.589844 307.660156 183.542969 308.050781 183.472656 "/>
<path style=" stroke:none;fill-rule:nonzero;fill:rgb(0%,76.078796%,79.60968%);fill-opacity:1;" d="M 297.984375 86.195312 C 300.113281 85.375 302.355469 84.984375 304.597656 84.984375 C 306.839844 84.984375 309.082031 85.375 311.207031 86.195312 C 317.867188 88.757812 322.167969 94.792969 322.167969 101.582031 C 322.167969 105.171875 321.113281 108.691406 319.101562 111.777344 L 304.597656 134 L 290.089844 111.777344 C 288.078125 108.691406 287.023438 105.171875 287.023438 101.582031 C 287.023438 94.792969 291.324219 88.757812 297.984375 86.195312 Z M 299.675781 147.921875 C 300.773438 149.570312 302.605469 150.574219 304.597656 150.574219 C 306.585938 150.574219 308.417969 149.570312 309.515625 147.921875 L 328.917969 118.15625 C 332.167969 113.195312 333.882812 107.457031 333.882812 101.582031 C 333.882812 89.898438 326.628906 79.566406 315.394531 75.269531 C 308.417969 72.59375 300.753906 72.617188 293.796875 75.269531 C 282.5625 79.566406 275.308594 89.898438 275.308594 101.582031 C 275.308594 107.457031 277.027344 113.195312 280.273438 118.15625 L 299.675781 147.921875 "/>
<path style=" stroke:none;fill-rule:nonzero;fill:rgb(0%,76.078796%,79.60968%);fill-opacity:1;" d="M 304.597656 114.660156 C 311.046875 114.660156 316.308594 109.402344 316.308594 102.910156 C 316.308594 96.4375 311.046875 91.15625 304.597656 91.15625 C 298.144531 91.15625 292.882812 96.4375 292.882812 102.910156 C 292.882812 109.402344 298.144531 114.660156 304.597656 114.660156 "/>
<path style=" stroke:none;fill-rule:nonzero;fill:rgb(0%,76.078796%,79.60968%);fill-opacity:1;" d="M 198.570312 281.253906 L 212.4375 264.769531 C 214.519531 262.300781 214.199219 258.597656 211.726562 256.519531 C 209.234375 254.4375 205.550781 254.757812 203.46875 257.226562 L 189.742188 273.550781 L 173.726562 259.582031 C 171.300781 257.457031 167.59375 257.707031 165.464844 260.128906 C 163.335938 262.578125 163.589844 266.28125 166.035156 268.40625 L 182.191406 282.511719 L 168.324219 298.972656 C 166.242188 301.441406 166.5625 305.144531 169.035156 307.226562 C 170.132812 308.140625 171.484375 308.597656 172.808594 308.597656 C 174.480469 308.597656 176.128906 307.890625 177.292969 306.515625 L 191.023438 290.195312 L 207.039062 304.183594 C 208.136719 305.144531 209.507812 305.625 210.882812 305.625 C 212.503906 305.625 214.128906 304.941406 215.296875 303.613281 C 217.425781 301.191406 217.171875 297.488281 214.726562 295.359375 L 198.570312 281.253906 "/>
<path style=" stroke:none;fill-rule:nonzero;fill:rgb(0%,76.078796%,79.60968%);fill-opacity:1;" d="M 76.164062 102.863281 C 85.867188 102.863281 93.738281 110.957031 93.738281 120.878906 C 93.738281 130.800781 85.867188 138.871094 76.164062 138.871094 C 66.464844 138.871094 58.59375 130.800781 58.59375 120.878906 C 58.59375 110.957031 66.464844 102.863281 76.164062 102.863281 Z M 76.164062 150.574219 C 92.320312 150.574219 105.453125 137.246094 105.453125 120.878906 C 105.453125 104.484375 92.320312 91.15625 76.164062 91.15625 C 60.011719 91.15625 46.878906 104.484375 46.878906 120.878906 C 46.878906 137.246094 60.011719 150.574219 76.164062 150.574219 "/>
</g>
</svg>
